Coordinates
version=1
nRows=32
nColumns=22
inDegrees=yes

Units are S.I. units (second, meters, Newtons, ...)
If the header above contains a line with 'inDegrees', this indicates whether rotational values are in degrees (yes) or radians (no).

endheader
time	pelvis_tilt	pelvis_list	pelvis_rotation	pelvis_tx	pelvis_ty	pelvis_tz	hip_flexion_r	hip_adduction_r	hip_rotation_r	knee_angle_r	ankle_angle_r	subtalar_angle_r	hip_flexion_l	hip_adduction_l	hip_rotation_l	knee_angle_l	ankle_angle_l	subtalar_angle_l	lumbar_extension	lumbar_bending	lumbar_rotation
      1.35000000	      0.98468462	     -1.72301578	      2.34386785	     -0.66664043	      1.07863660	      1.15887091	      0.07938692	      3.06895635	     -6.42387791	    -15.29066513	     15.38335688	     -3.87611727	      1.69512375	     -3.11037573	      3.31534390	    -19.42263426	     16.06122710	     -1.06451576	     -2.68572965	      0.19295215	     -4.64186477
      1.36000000	      0.91850075	     -1.95749918	      2.35136525	     -0.66648352	      1.07803075	      1.16052464	      0.17349469	      3.42565334	     -6.28627870	    -15.34303276	     15.45989138	     -3.96811814	      2.42705421	     -3.38131435	      3.51192489	    -20.65525535	     16.22961399	     -0.93462725	     -2.82883812	      0.47063803	     -4.58102452
      1.37000000	      0.86165527	     -2.19959005	      2.36828696	     -0.66634810	      1.07742393	      1.16216411	      0.25659146	      3.78979448	     -6.16765159	    -15.38937171	     15.52923127	     -4.05349489	      3.21094762	     -3.64839438	      3.74363566	    -21.99458980	     16.34488874	     -0.79277833	     -2.99797103	      0.75769058	     -4.52064885
      1.38000000	      0.81947490	     -2.44111265	      2.39273519	     -0.66621696	      1.07683709	      1.16377636	      0.32494255	      4.15173565	     -6.06918370	    -15.43652930	     15.59803145	     -4.13428648	      4.03889360	     -3.89993016	      4.01210299	    -23.43943610	     16.38832032	     -0.63345685	     -3.19351561	      1.04585303	     -4.45633528
      1.39000000	      0.83351533	     -2.69067192	      2.42124521	     -0.66607877	      1.07635434	      1.16536725	      0.32397446	      4.52403779	     -5.98410112	    -15.46288424	     15.62741958	     -4.19576157	      4.85563167	     -4.14445675	      4.32765456	    -24.97116091	     16.36377963	     -0.50056489	     -3.46585517	      1.34550055	     -4.38266998
      1.40000000	      0.75778874	     -2.88494461	      2.45190861	     -0.66597819	      1.07577629	      1.16691899	      0.43422735	      4.82740976	     -5.93343411	    -15.51940991	     15.72698244	     -4.29235936	      5.83838678	     -4.30620784	      4.66940563	    -26.62285967	     16.18038164	     -0.22565486	     -3.64281687	      1.57551463	     -4.31085318
      1.41000000	      0.74252074	     -3.07160358	      2.49029866	     -0.66584505	      1.07534930	      1.16843493	      0.46025289	      5.12530946	     -5.89364055	    -15.53951285	     15.77836986	     -4.36756733	      6.79857216	     -4.44019203	      5.05838006	    -28.34804988	     15.89391498	      0.02677361	     -3.89647403	      1.79900768	     -4.24296603
      1.42000000	      0.72594482	     -3.22314136	      2.53070885	     -0.66568713	      1.07500090	      1.16991705	      0.47915817	      5.38328248	     -5.86834674	    -15.54698940	     15.80973547	     -4.43706531	      7.80171951	     -4.51163505	      5.48741516	    -30.14443808	     15.45114078	      0.32155249	     -4.15155327	      1.97993307	     -4.17300061
      1.43000000	      0.71987687	     -3.34727861	      2.58016884	     -0.66549161	      1.07474617	      1.17134854	      0.47379498	      5.60908036	     -5.87247719	    -15.53438652	     15.83757159	     -4.49027917	      8.83212782	     -4.52517956	      5.96333497	    -32.00246354	     14.86825043	      0.62545316	     -4.41953741	      2.12857801	     -4.10509982
      1.44000000	      0.71498570	     -3.42780225	      2.62982721	     -0.66524776	      1.07458963	      1.17274060	      0.45150663	      5.78469585	     -5.89312299	    -15.49839606	     15.80958854	     -4.52040070	      9.88685381	     -4.46373151	      6.46406449	    -33.89656113	     14.11858320	      0.93676617	     -4.68873688	      2.22522794	     -4.04437539
      1.45000000	      0.67348694	     -3.47215352	      2.65780370	     -0.66496251	      1.07443041	      1.17411741	      0.47145479	      5.91212894	     -5.92734656	    -15.47812112	     15.86375181	     -4.53016699	     11.00582642	     -4.33943353	      6.95393909	    -35.82803252	     13.25386000	      1.29661738	     -4.91490477	      2.27633821	     -3.94507069
      1.46000000	      0.64123365	     -3.49216615	      2.68111986	     -0.66460091	      1.07435975	      1.17544809	      0.46121874	      6.00767430	     -5.98307751	    -15.42812034	     15.87033463	     -4.49943627	     12.12170672	     -4.16268753	      7.44923608	    -37.75293529	     12.27876096	      1.61658475	     -5.14838038	      2.29974141	     -3.83669152
      1.47000000	      0.59458720	     -3.49058207	      2.68156272	     -0.66416466	      1.07431243	      1.17676122	      0.45616714	      6.07251566	     -6.04131360	    -15.36950327	     15.88272653	     -4.42497632	     13.25530196	     -3.94824168	      7.90009509	    -39.65736557	     11.24660474	      1.92008821	     -5.36091364	      2.29717128	     -3.70273947
      1.48000000	      0.54193718	     -3.47566158	      2.65724521	     -0.66364183	      1.07429642	      1.17805903	      0.44029972	      6.11586479	     -6.10016642	    -15.28892063	     15.89224982	     -4.30365008	     14.38511688	     -3.71351211	      8.28959733	    -41.50522137	     10.20961767	      2.19263443	     -5.56318397	      2.27646669	     -3.53905324
      1.49000000	      0.48513543	     -3.45247044	      2.60628824	     -0.66298812	      1.07429897	      1.17933058	      0.40828592	      6.14341797	     -6.15590119	    -15.18536238	     15.90680042	     -4.13506800	     15.49709713	     -3.47283660	      8.59807641	    -43.26697531	      9.23631307	      2.42628388	     -5.75142159	      2.24750548	     -3.34033809
      1.50000000	      0.42851325	     -3.42174086	      2.52532878	     -0.66219930	      1.07432711	      1.18059252	      0.35257964	      6.15803625	     -6.19589679	    -15.05363871	     15.91878855	     -3.92221422	     16.57671891	     -3.24059045	      8.80339480	    -44.90635751	      8.38822939	      2.60964618	     -5.93235648	      2.20685931	     -3.10947433
      1.51000000	      0.37587735	     -3.38242974	      2.41579925	     -0.66124423	      1.07438347	      1.18183838	      0.26586370	      6.15985082	     -6.21722873	    -14.89135091	     15.93133857	     -3.67596500	     17.60990647	     -3.02420000	      8.89686817	    -46.39336265	      7.72425398	      2.72316389	     -6.10577285	      2.15417568	     -2.84560187
      1.52000000	      0.32671906	     -3.33329353	      2.27935748	     -0.66010148	      1.07446399	      1.18307080	      0.14559329	      6.14894654	     -6.21839789	    -14.69551156	     15.95300267	     -3.40467219	     18.59127308	     -2.83242545	      8.86746660	    -47.70474301	      7.28147904	      2.75514864	     -6.26920510	      2.08706641	     -2.55736010
      1.53000000	      0.28620800	     -3.26805247	      2.11494246	     -0.65876577	      1.07458674	      1.18429768	     -0.01449586	      6.12097807	     -6.18498313	    -14.46546407	     15.95725717	     -3.13996093	     19.50871381	     -2.66613939	      8.71134896	    -48.81914169	      7.05550317	      2.70523487	     -6.42789890	      1.99783567	     -2.25486432
      1.54000000	      0.23500431	     -3.19871726	      1.95527637	     -0.65725399	      1.07468329	      1.18546676	     -0.17896614	      6.08557216	     -6.15997354	    -14.22850394	     16.01542574	     -2.82810096	     20.39301364	     -2.52035070	      8.48491362	    -49.74504167	      7.03952789	      2.56457496	     -6.55877072	      1.90382543	     -1.97129583
      1.55000000	      0.21719499	     -3.11109842	      1.75960626	     -0.65553031	      1.07485189	      1.18666504	     -0.41624781	      6.03837009	     -6.05146253	    -13.94795047	     16.05290648	     -2.63271853	     21.17740492	     -2.40960078	      8.13123081	    -50.45653964	      7.19592939	      2.43073539	     -6.71281025	      1.78311687	     -1.66954066
      1.56000000	      0.16067948	     -3.02960139	      1.56459725	     -0.65365733	      1.07495511	      1.18783081	     -0.60994099	      5.99165230	     -5.97793140	    -13.68752792	     16.08521850	     -2.34377235	     21.96676396	     -2.33795206	      7.70379536	    -50.98451662	      7.38916592	      2.18935559	     -6.80855313	      1.66716257	     -1.37912252
      1.57000000	      0.11095732	     -2.93599587	      1.39522904	     -0.65159120	      1.07505773	      1.18892278	     -0.84010121	      5.93569228	     -5.88490416	    -13.39500598	     16.12501821	     -2.06970802	     22.69504002	     -2.26840516	      7.25027682	    -51.31412027	      7.68242486	      1.89864125	     -6.89491433	      1.54062714	     -1.14972699
      1.58000000	      0.08002912	     -2.84465796	      1.20499884	     -0.64936734	      1.07515867	      1.19003334	     -1.09347302	      5.88460080	     -5.76069614	    -13.11471205	     16.17285390	     -1.91428422	     23.35424426	     -2.24331707	      6.71698047	    -51.46170963	      8.02287551	      1.70322089	     -6.99275864	      1.41375704	     -0.91235577
      1.59000000	      0.03859566	     -2.75228124	      1.02261948	     -0.64698542	      1.07521557	      1.19110666	     -1.34248113	      5.83238722	     -5.62348089	    -12.83823369	     16.21816266	     -1.74343205	     23.97653941	     -2.23427613	      6.15424791	    -51.43201095	      8.34897959	      1.45147128	     -7.06621998	      1.28596138	     -0.70562289
      1.60000000	     -0.00032345	     -2.65901036	      0.84882318	     -0.64445287	      1.07523430	      1.19212375	     -1.59500842	      5.77697344	     -5.49113469	    -12.57562753	     16.26664760	     -1.59901764	     24.54701194	     -2.23332808	      5.57682003	    -51.23347053	      8.66127333	      1.20319804	     -7.13239939	      1.16190658	     -0.52701002
      1.61000000	     -0.03569046	     -2.56408529	      0.67935271	     -0.64178177	      1.07521428	      1.19308858	     -1.84523178	      5.71672612	     -5.35551041	    -12.33842568	     16.32119332	     -1.47681478	     25.06255883	     -2.23796472	      4.98488238	    -50.87115078	      8.93171412	      0.95997254	     -7.19570121	      1.03902393	     -0.36738794
      1.62000000	     -0.06643840	     -2.46628176	      0.51687986	     -0.63898536	      1.07514881	      1.19398802	     -2.09018558	      5.64881771	     -5.22795288	    -12.13219592	     16.38568872	     -1.37897764	     25.52454603	     -2.23832023	      4.39315060	    -50.35760057	      9.14921520	      0.73862119	     -7.26081489	      0.91688001	     -0.22503946
      1.63000000	     -0.09190530	     -2.36467481	      0.36130665	     -0.63606554	      1.07504259	      1.19481838	     -2.32819183	      5.57132909	     -5.11140882	    -11.96095768	     16.46230131	     -1.30147571	     25.92953152	     -2.22977655	      3.80654352	    -49.69532752	      9.29803295	      0.54257536	     -7.32922264	      0.79498573	     -0.10467533
      1.64000000	     -0.12101184	     -2.25893852	      0.22138545	     -0.63301565	      1.07487431	      1.19554905	     -2.54927966	      5.48297133	     -5.01782384	    -11.82668255	     16.55299203	     -1.25191536	     26.29087511	     -2.20106257	      3.24034262	    -48.89895955	      9.38096545	      0.41041826	     -7.38821440	      0.67582389	      0.00360797
      1.65000000	     -0.16714879	     -2.14695275	      0.10191002	     -0.62985676	      1.07462948	      1.19618993	     -2.73900954	      5.38339715	     -4.94038376	    -11.72566796	     16.62282278	     -1.22831258	     26.62520630	     -2.14387079	      2.70900946	    -47.97592812	      9.40393383	      0.35021320	     -7.42726605	      0.55345028	      0.06316039
      1.66000000	     -0.19749443	     -2.02403871	     -0.02498583	     -0.62656258	      1.07434698	      1.19676558	     -2.92778312	      5.26425512	     -4.87614810	    -11.67318969	     16.75205440	     -1.23177433	     26.89857431	     -2.07402335	      2.15765330	    -46.94077838	      9.30443438	      0.32408081	     -7.48257056	      0.41932231	      0.15167718
